<svg width="151" height="41" viewBox="0 0 151 41" fill="none" xmlns="http://www.w3.org/2000/svg">
    <path fill-rule="evenodd" clip-rule="evenodd" d="M11.1111 22.7222C12.3207 22.7222 13.4852 22.5289 14.5753 22.1716C15.5691 21.9712 17.4815 21.8433 19.4891 23.1C21.3418 24.2597 22.0784 25.9864 22.3691 27.0887C23.4137 34.6651 29.9145 40.5 37.7781 40.5C46.3692 40.5 53.3336 33.5355 53.3336 24.9444C53.3336 16.3533 46.3692 9.38887 37.7781 9.38887C35.1154 9.38887 32.609 10.0579 30.4177 11.237C29.4728 11.5962 26.9458 12.35 24.7558 11.1666C22.7375 10.0761 21.9138 8.66377 21.6174 7.98602C20.1145 3.62948 15.9783 0.5 11.1111 0.5C4.97462 0.5 0 5.47462 0 11.6111C0 17.7476 4.97462 22.7222 11.1111 22.7222ZM12.445 40.5C16.1269 40.5 19.1117 37.5152 19.1117 33.8333C19.1117 30.1514 16.1269 27.1667 12.445 27.1667C8.76314 27.1667 5.77837 30.1514 5.77837 33.8333C5.77837 37.5152 8.76314 40.5 12.445 40.5Z" fill="#040404"/>
    <path d="M64.6223 19.2378C64.4398 19.2378 64.2905 19.1797 64.1743 19.0636C64.0582 18.9474 64.0001 18.7981 64.0001 18.6156V2.43778C64.0001 2.25526 64.0582 2.10592 64.1743 1.98977C64.2905 1.87363 64.4398 1.81555 64.6223 1.81555H71.417C72.761 1.81555 73.9225 2.02296 74.9015 2.43778C75.897 2.85259 76.6686 3.48311 77.2161 4.32933C77.7803 5.15896 78.0624 6.196 78.0624 7.44044C78.0624 8.70148 77.7803 9.74681 77.2161 10.5764C76.6686 11.3895 75.897 11.9951 74.9015 12.3933C73.9225 12.7916 72.761 12.9907 71.417 12.9907H68.0819V18.6156C68.0819 18.7981 68.0238 18.9474 67.9077 19.0636C67.7915 19.1797 67.6422 19.2378 67.4597 19.2378H64.6223ZM68.0072 9.90444H71.2926C72.1388 9.90444 72.7942 9.69704 73.2588 9.28222C73.74 8.86741 73.9806 8.24518 73.9806 7.41555C73.9806 6.68548 73.7649 6.08815 73.3335 5.62355C72.9186 5.15896 72.2383 4.92666 71.2926 4.92666H68.0072V9.90444Z" fill="#040404"/>
    <path d="M87.2213 19.4867C85.7611 19.4867 84.4835 19.2461 83.3884 18.7649C82.2933 18.2671 81.447 17.5122 80.8497 16.5C80.2524 15.4713 79.9537 14.1687 79.9537 12.5924V2.43778C79.9537 2.25526 80.0118 2.10592 80.1279 1.98977C80.2441 1.87363 80.3934 1.81555 80.5759 1.81555H83.2888C83.4713 1.81555 83.6207 1.87363 83.7368 1.98977C83.853 2.10592 83.911 2.25526 83.911 2.43778V12.5676C83.911 13.7954 84.2014 14.708 84.7822 15.3053C85.3629 15.9027 86.1759 16.2013 87.2213 16.2013C88.25 16.2013 89.0548 15.9027 89.6355 15.3053C90.2162 14.708 90.5066 13.7954 90.5066 12.5676V2.43778C90.5066 2.25526 90.5647 2.10592 90.6808 1.98977C90.8136 1.87363 90.9629 1.81555 91.1288 1.81555H93.8666C94.0325 1.81555 94.1736 1.87363 94.2897 1.98977C94.4059 2.10592 94.4639 2.25526 94.4639 2.43778V12.5924C94.4639 14.1687 94.1653 15.4713 93.5679 16.5C92.9706 17.5122 92.1327 18.2671 91.0542 18.7649C89.9756 19.2461 88.698 19.4867 87.2213 19.4867Z" fill="#040404"/>
    <path d="M98.1164 19.2378C97.9339 19.2378 97.7845 19.1797 97.6684 19.0636C97.5522 18.9474 97.4942 18.7981 97.4942 18.6156V2.43778C97.4942 2.25526 97.5522 2.10592 97.6684 1.98977C97.7845 1.87363 97.9339 1.81555 98.1164 1.81555H104.712C106.786 1.81555 108.42 2.29674 109.615 3.25911C110.81 4.20489 111.407 5.57378 111.407 7.36578C111.407 8.57704 111.117 9.58918 110.536 10.4022C109.955 11.2153 109.175 11.8209 108.196 12.2191L111.706 18.4413C111.756 18.5409 111.78 18.6322 111.78 18.7151C111.78 18.8479 111.731 18.9723 111.631 19.0884C111.532 19.188 111.407 19.2378 111.258 19.2378H108.495C108.196 19.2378 107.972 19.1631 107.823 19.0138C107.674 18.8479 107.566 18.6985 107.5 18.5658L104.463 12.8662H101.451V18.6156C101.451 18.7981 101.393 18.9474 101.277 19.0636C101.161 19.1797 101.012 19.2378 100.829 19.2378H98.1164ZM101.451 9.70533H104.637C105.55 9.70533 106.222 9.49793 106.653 9.08311C107.101 8.6683 107.325 8.08755 107.325 7.34089C107.325 6.59422 107.11 6.00518 106.678 5.57378C106.247 5.14237 105.566 4.92666 104.637 4.92666H101.451V9.70533Z" fill="#040404"/>
    <path d="M114.584 19.2378C114.401 19.2378 114.252 19.1797 114.136 19.0636C114.02 18.9474 113.962 18.7981 113.962 18.6156V2.43778C113.962 2.25526 114.02 2.10592 114.136 1.98977C114.252 1.87363 114.401 1.81555 114.584 1.81555H117.396C117.579 1.81555 117.728 1.87363 117.844 1.98977C117.96 2.10592 118.019 2.25526 118.019 2.43778V18.6156C118.019 18.7981 117.96 18.9474 117.844 19.0636C117.728 19.1797 117.579 19.2378 117.396 19.2378H114.584Z" fill="#040404"/>
    <path d="M125.648 19.2378C125.466 19.2378 125.316 19.1797 125.2 19.0636C125.084 18.9474 125.026 18.7981 125.026 18.6156V5.27511H120.496C120.33 5.27511 120.189 5.21703 120.073 5.10089C119.957 4.98474 119.899 4.8437 119.899 4.67778V2.43778C119.899 2.25526 119.957 2.10592 120.073 1.98977C120.189 1.87363 120.33 1.81555 120.496 1.81555H133.538C133.72 1.81555 133.87 1.87363 133.986 1.98977C134.102 2.10592 134.16 2.25526 134.16 2.43778V4.67778C134.16 4.8437 134.102 4.98474 133.986 5.10089C133.87 5.21703 133.72 5.27511 133.538 5.27511H129.033V18.6156C129.033 18.7981 128.975 18.9474 128.859 19.0636C128.743 19.1797 128.593 19.2378 128.411 19.2378H125.648Z" fill="#040404"/>
    <path d="M141.208 19.2378C141.026 19.2378 140.877 19.1797 140.76 19.0636C140.644 18.9474 140.586 18.7981 140.586 18.6156V13.14L134.762 2.612C134.746 2.56222 134.729 2.52074 134.712 2.48755C134.696 2.43777 134.688 2.388 134.688 2.33822C134.688 2.20548 134.737 2.08933 134.837 1.98977C134.953 1.87363 135.077 1.81555 135.21 1.81555H137.848C138.081 1.81555 138.263 1.87363 138.396 1.98977C138.529 2.10592 138.62 2.21377 138.67 2.31333L142.577 9.15778L146.485 2.31333C146.535 2.21377 146.626 2.10592 146.759 1.98977C146.891 1.87363 147.074 1.81555 147.306 1.81555H149.944C150.077 1.81555 150.193 1.87363 150.293 1.98977C150.409 2.08933 150.467 2.20548 150.467 2.33822C150.467 2.388 150.459 2.43777 150.442 2.48755C150.426 2.52074 150.409 2.56222 150.392 2.612L144.568 13.14V18.6156C144.568 18.7981 144.51 18.9474 144.394 19.0636C144.278 19.1797 144.129 19.2378 143.946 19.2378H141.208Z" fill="#040404"/>
    <path d="M64.6221 38.9356C64.4396 38.9356 64.2902 38.8775 64.1741 38.7614C64.058 38.6452 63.9999 38.4959 63.9999 38.3134V22.1356C63.9999 21.9531 64.058 21.8037 64.1741 21.6876C64.2902 21.5714 64.4396 21.5134 64.6221 21.5134H75.7226C75.9051 21.5134 76.0544 21.5714 76.1706 21.6876C76.2867 21.8037 76.3448 21.9531 76.3448 22.1356V24.2511C76.3448 24.4337 76.2867 24.583 76.1706 24.6991C76.0544 24.8153 75.9051 24.8734 75.7226 24.8734H67.8825V29.0796H75.2248C75.4073 29.0796 75.5566 29.1377 75.6728 29.2538C75.7889 29.37 75.847 29.5193 75.847 29.7018V31.8174C75.847 31.9833 75.7889 32.1243 75.6728 32.2405C75.5566 32.3566 75.4073 32.4147 75.2248 32.4147H67.8825V38.3134C67.8825 38.4959 67.8245 38.6452 67.7083 38.7614C67.5922 38.8775 67.4428 38.9356 67.2603 38.9356H64.6221Z" fill="#040404"/>
    <path d="M79.291 38.9356C79.1085 38.9356 78.9591 38.8775 78.843 38.7614C78.7268 38.6452 78.6688 38.4959 78.6688 38.3134V22.1356C78.6688 21.9531 78.7268 21.8037 78.843 21.6876C78.9591 21.5714 79.1085 21.5134 79.291 21.5134H82.0537C82.2362 21.5134 82.3855 21.5714 82.5017 21.6876C82.6178 21.8037 82.6759 21.9531 82.6759 22.1356V35.6005H90.3914C90.574 35.6005 90.7233 35.6585 90.8394 35.7747C90.9556 35.8908 91.0137 36.0402 91.0137 36.2227V38.3134C91.0137 38.4959 90.9556 38.6452 90.8394 38.7614C90.7233 38.8775 90.574 38.9356 90.3914 38.9356H79.291Z" fill="#040404"/>
    <path d="M99.5033 39.1845C97.9934 39.1845 96.6909 38.9356 95.5958 38.4378C94.5006 37.94 93.6461 37.1934 93.0322 36.1978C92.4183 35.1857 92.0864 33.9163 92.0366 32.3898C92.02 31.6763 92.0117 30.9711 92.0117 30.2742C92.0117 29.5608 92.02 28.839 92.0366 28.1089C92.0864 26.6156 92.4183 25.3628 93.0322 24.3507C93.6627 23.3219 94.5255 22.5504 95.6206 22.036C96.7323 21.5217 98.0266 21.2645 99.5033 21.2645C100.963 21.2645 102.241 21.5217 103.336 22.036C104.448 22.5504 105.319 23.3219 105.95 24.3507C106.58 25.3628 106.912 26.6156 106.945 28.1089C106.978 28.839 106.995 29.5608 106.995 30.2742C106.995 30.9711 106.978 31.6763 106.945 32.3898C106.895 33.9163 106.563 35.1857 105.95 36.1978C105.336 37.1934 104.481 37.94 103.386 38.4378C102.291 38.9356 100.997 39.1845 99.5033 39.1845ZM99.5033 35.9738C100.466 35.9738 101.254 35.6834 101.868 35.1027C102.498 34.5054 102.83 33.5596 102.863 32.2654C102.896 31.5353 102.913 30.855 102.913 30.2245C102.913 29.5774 102.896 28.8971 102.863 28.1836C102.847 27.3208 102.689 26.6156 102.39 26.068C102.092 25.5205 101.694 25.1222 101.196 24.8734C100.715 24.6079 100.15 24.4751 99.5033 24.4751C98.8562 24.4751 98.2838 24.6079 97.786 24.8734C97.2882 25.1222 96.89 25.5205 96.5913 26.068C96.3092 26.6156 96.1516 27.3208 96.1184 28.1836C96.1018 28.8971 96.0935 29.5774 96.0935 30.2245C96.0935 30.855 96.1018 31.5353 96.1184 32.2654C96.1682 33.5596 96.5 34.5054 97.114 35.1027C97.7279 35.6834 98.5243 35.9738 99.5033 35.9738Z" fill="#040404"/>
    <path d="M112.229 38.9356C111.964 38.9356 111.748 38.8609 111.582 38.7116C111.433 38.5623 111.342 38.3797 111.308 38.164L108.471 22.2102C108.455 22.1771 108.446 22.1439 108.446 22.1107C108.446 22.0775 108.446 22.0526 108.446 22.036C108.446 21.9033 108.496 21.7871 108.596 21.6876C108.695 21.5714 108.82 21.5134 108.969 21.5134H111.582C112.014 21.5134 112.254 21.6876 112.304 22.036L114.171 32.564L116.187 26.0182C116.236 25.8855 116.319 25.7445 116.436 25.5951C116.552 25.4458 116.743 25.3711 117.008 25.3711H118.576C118.841 25.3711 119.032 25.4458 119.148 25.5951C119.265 25.7445 119.339 25.8855 119.372 26.0182L121.413 32.5391L123.255 22.036C123.305 21.6876 123.554 21.5134 124.002 21.5134H126.615C126.764 21.5134 126.889 21.5714 126.988 21.6876C127.088 21.7871 127.138 21.9033 127.138 22.036C127.138 22.0526 127.138 22.0775 127.138 22.1107C127.138 22.1439 127.129 22.1771 127.113 22.2102L124.276 38.164C124.242 38.3797 124.143 38.5623 123.977 38.7116C123.828 38.8609 123.62 38.9356 123.355 38.9356H121.339C121.073 38.9356 120.866 38.8692 120.716 38.7365C120.584 38.5871 120.492 38.4378 120.443 38.2885L117.78 30.5729L115.141 38.2885C115.092 38.4378 114.992 38.5871 114.843 38.7365C114.71 38.8692 114.503 38.9356 114.22 38.9356H112.229Z" fill="#040404"/>
</svg>
