<svg width="334" height="40" viewBox="0 0 334 40" fill="none" xmlns="http://www.w3.org/2000/svg">
    <path fill-rule="evenodd" clip-rule="evenodd" d="M11.1111 22.2222C12.3208 22.2222 13.4853 22.0289 14.5755 21.6715C15.5694 21.4711 17.4816 21.3435 19.4889 22.6C21.341 23.7593 22.0777 25.4854 22.3686 26.5877C23.4129 34.1645 29.9139 39.9998 37.7777 39.9998C46.3688 39.9998 53.3333 33.0353 53.3333 24.4442C53.3333 15.8531 46.3688 8.88867 37.7777 8.88867C35.1144 8.88867 32.6073 9.55802 30.4157 10.7377C29.4693 11.0972 26.9442 11.8492 24.7556 10.6667C22.7395 9.57733 21.9153 8.16681 21.6182 7.48821C20.1159 3.13053 15.9791 0 11.1111 0C4.97461 0 0 4.97461 0 11.1111C0 17.2476 4.97461 22.2222 11.1111 22.2222ZM12.4443 40C16.1262 40 19.111 37.0152 19.111 33.3333C19.111 29.6514 16.1262 26.6666 12.4443 26.6666C8.76238 26.6666 5.77762 29.6514 5.77762 33.3333C5.77762 37.0152 8.76238 40 12.4443 40Z" fill="white"/>
    <path d="M64.622 18.7381C64.4395 18.7381 64.2901 18.6801 64.174 18.5639C64.0578 18.4478 63.9998 18.2984 63.9998 18.1159V1.93814C63.9998 1.75562 64.0578 1.60629 64.174 1.49014C64.2901 1.37399 64.4395 1.31592 64.622 1.31592H71.4166C72.7606 1.31592 73.9221 1.52333 74.9011 1.93814C75.8966 2.35296 76.6682 2.98347 77.2158 3.8297C77.7799 4.65933 78.062 5.69636 78.062 6.94081C78.062 8.20185 77.7799 9.24718 77.2158 10.0768C76.6682 10.8898 75.8966 11.4955 74.9011 11.8937C73.9221 12.2919 72.7606 12.491 71.4166 12.491H68.0815V18.1159C68.0815 18.2984 68.0235 18.4478 67.9073 18.5639C67.7912 18.6801 67.6418 18.7381 67.4593 18.7381H64.622ZM68.0069 9.40481H71.2922C72.1384 9.40481 72.7938 9.1974 73.2584 8.78259C73.7396 8.36777 73.9802 7.74555 73.9802 6.91592C73.9802 6.18584 73.7645 5.58851 73.3331 5.12392C72.9183 4.65933 72.238 4.42703 71.2922 4.42703H68.0069V9.40481Z" fill="white"/>
    <path d="M87.2209 18.987C85.7607 18.987 84.4831 18.7464 83.388 18.2653C82.2929 17.7675 81.4467 17.0125 80.8493 16.0004C80.252 14.9716 79.9533 13.6691 79.9533 12.0928V1.93814C79.9533 1.75562 80.0114 1.60629 80.1276 1.49014C80.2437 1.37399 80.393 1.31592 80.5756 1.31592H83.2885C83.471 1.31592 83.6203 1.37399 83.7365 1.49014C83.8526 1.60629 83.9107 1.75562 83.9107 1.93814V12.0679C83.9107 13.2958 84.201 14.2084 84.7818 14.8057C85.3625 15.403 86.1756 15.7017 87.2209 15.7017C88.2496 15.7017 89.0544 15.403 89.6351 14.8057C90.2159 14.2084 90.5062 13.2958 90.5062 12.0679V1.93814C90.5062 1.75562 90.5643 1.60629 90.6805 1.49014C90.8132 1.37399 90.9625 1.31592 91.1285 1.31592H93.8662C94.0322 1.31592 94.1732 1.37399 94.2893 1.49014C94.4055 1.60629 94.4636 1.75562 94.4636 1.93814V12.0928C94.4636 13.6691 94.1649 14.9716 93.5676 16.0004C92.9702 17.0125 92.1323 17.7675 91.0538 18.2653C89.9753 18.7464 88.6976 18.987 87.2209 18.987Z" fill="white"/>
    <path d="M98.116 18.7381C97.9335 18.7381 97.7842 18.6801 97.668 18.5639C97.5519 18.4478 97.4938 18.2984 97.4938 18.1159V1.93814C97.4938 1.75562 97.5519 1.60629 97.668 1.49014C97.7842 1.37399 97.9335 1.31592 98.116 1.31592H104.712C106.786 1.31592 108.42 1.7971 109.615 2.75947C110.809 3.70525 111.407 5.07414 111.407 6.86614C111.407 8.0774 111.116 9.08955 110.536 9.90259C109.955 10.7156 109.175 11.3213 108.196 11.7195L111.705 17.9417C111.755 18.0413 111.78 18.1325 111.78 18.2155C111.78 18.3482 111.73 18.4727 111.631 18.5888C111.531 18.6884 111.407 18.7381 111.257 18.7381H108.495C108.196 18.7381 107.972 18.6635 107.823 18.5141C107.673 18.3482 107.565 18.1989 107.499 18.0661L104.463 12.3666H101.451V18.1159C101.451 18.2984 101.393 18.4478 101.277 18.5639C101.161 18.6801 101.011 18.7381 100.829 18.7381H98.116ZM101.451 9.2057H104.637C105.549 9.2057 106.221 8.99829 106.653 8.58348C107.101 8.16866 107.325 7.58792 107.325 6.84125C107.325 6.09459 107.109 5.50555 106.678 5.07414C106.246 4.64273 105.566 4.42703 104.637 4.42703H101.451V9.2057Z" fill="white"/>
    <path d="M114.584 18.7381C114.401 18.7381 114.252 18.6801 114.136 18.5639C114.019 18.4478 113.961 18.2984 113.961 18.1159V1.93814C113.961 1.75562 114.019 1.60629 114.136 1.49014C114.252 1.37399 114.401 1.31592 114.584 1.31592H117.396C117.578 1.31592 117.728 1.37399 117.844 1.49014C117.96 1.60629 118.018 1.75562 118.018 1.93814V18.1159C118.018 18.2984 117.96 18.4478 117.844 18.5639C117.728 18.6801 117.578 18.7381 117.396 18.7381H114.584Z" fill="white"/>
    <path d="M125.648 18.7381C125.465 18.7381 125.316 18.6801 125.2 18.5639C125.084 18.4478 125.026 18.2984 125.026 18.1159V4.77547H120.496C120.33 4.77547 120.189 4.7174 120.073 4.60125C119.957 4.4851 119.898 4.34407 119.898 4.17814V1.93814C119.898 1.75562 119.957 1.60629 120.073 1.49014C120.189 1.37399 120.33 1.31592 120.496 1.31592H133.538C133.72 1.31592 133.869 1.37399 133.986 1.49014C134.102 1.60629 134.16 1.75562 134.16 1.93814V4.17814C134.16 4.34407 134.102 4.4851 133.986 4.60125C133.869 4.7174 133.72 4.77547 133.538 4.77547H129.033V18.1159C129.033 18.2984 128.975 18.4478 128.858 18.5639C128.742 18.6801 128.593 18.7381 128.41 18.7381H125.648Z" fill="white"/>
    <path d="M141.208 18.7381C141.025 18.7381 140.876 18.6801 140.76 18.5639C140.644 18.4478 140.586 18.2984 140.586 18.1159V12.6404L134.762 2.11236C134.745 2.06259 134.729 2.0211 134.712 1.98792C134.695 1.93814 134.687 1.88836 134.687 1.83859C134.687 1.70584 134.737 1.5897 134.836 1.49014C134.953 1.37399 135.077 1.31592 135.21 1.31592H137.848C138.08 1.31592 138.263 1.37399 138.396 1.49014C138.528 1.60629 138.62 1.71414 138.669 1.8137L142.577 8.65814L146.484 1.8137C146.534 1.71414 146.625 1.60629 146.758 1.49014C146.891 1.37399 147.073 1.31592 147.306 1.31592H149.944C150.077 1.31592 150.193 1.37399 150.292 1.49014C150.409 1.5897 150.467 1.70584 150.467 1.83859C150.467 1.88836 150.458 1.93814 150.442 1.98792C150.425 2.0211 150.409 2.06259 150.392 2.11236L144.568 12.6404V18.1159C144.568 18.2984 144.51 18.4478 144.394 18.5639C144.278 18.6801 144.128 18.7381 143.946 18.7381H141.208Z" fill="white"/>
    <path d="M64.622 38.4358C64.4395 38.4358 64.2901 38.3777 64.174 38.2615C64.0578 38.1454 63.9998 37.9961 63.9998 37.8135V21.6358C63.9998 21.4532 64.0578 21.3039 64.174 21.1878C64.2901 21.0716 64.4395 21.0135 64.622 21.0135H75.7224C75.9049 21.0135 76.0543 21.0716 76.1704 21.1878C76.2866 21.3039 76.3446 21.4532 76.3446 21.6358V23.7513C76.3446 23.9338 76.2866 24.0832 76.1704 24.1993C76.0543 24.3155 75.9049 24.3735 75.7224 24.3735H67.8824V28.5798H75.2246C75.4072 28.5798 75.5565 28.6378 75.6726 28.754C75.7888 28.8701 75.8469 29.0195 75.8469 29.202V31.3175C75.8469 31.4835 75.7888 31.6245 75.6726 31.7407C75.5565 31.8568 75.4072 31.9149 75.2246 31.9149H67.8824V37.8135C67.8824 37.9961 67.8243 38.1454 67.7082 38.2615C67.5921 38.3777 67.4427 38.4358 67.2602 38.4358H64.622Z" fill="white"/>
    <path d="M79.2909 38.4358C79.1083 38.4358 78.959 38.3777 78.8429 38.2615C78.7267 38.1454 78.6686 37.9961 78.6686 37.8135V21.6358C78.6686 21.4532 78.7267 21.3039 78.8429 21.1878C78.959 21.0716 79.1083 21.0135 79.2909 21.0135H82.0535C82.2361 21.0135 82.3854 21.0716 82.5015 21.1878C82.6177 21.3039 82.6758 21.4532 82.6758 21.6358V35.1007H90.3913C90.5738 35.1007 90.7232 35.1587 90.8393 35.2749C90.9555 35.391 91.0135 35.5404 91.0135 35.7229V37.8135C91.0135 37.9961 90.9555 38.1454 90.8393 38.2615C90.7232 38.3777 90.5738 38.4358 90.3913 38.4358H79.2909Z" fill="white"/>
    <path d="M99.5032 38.6847C97.9932 38.6847 96.6907 38.4358 95.5956 37.938C94.5005 37.4402 93.646 36.6935 93.0321 35.698C92.4181 34.6858 92.0863 33.4165 92.0365 31.89C92.0199 31.1765 92.0116 30.4713 92.0116 29.7744C92.0116 29.0609 92.0199 28.3392 92.0365 27.6091C92.0863 26.1158 92.4181 24.863 93.0321 23.8509C93.6626 22.8221 94.5254 22.0506 95.6205 21.5362C96.7322 21.0218 98.0264 20.7646 99.5032 20.7646C100.963 20.7646 102.241 21.0218 103.336 21.5362C104.448 22.0506 105.319 22.8221 105.949 23.8509C106.58 24.863 106.912 26.1158 106.945 27.6091C106.978 28.3392 106.995 29.0609 106.995 29.7744C106.995 30.4713 106.978 31.1765 106.945 31.89C106.895 33.4165 106.563 34.6858 105.949 35.698C105.335 36.6935 104.481 37.4402 103.386 37.938C102.291 38.4358 100.997 38.6847 99.5032 38.6847ZM99.5032 35.474C100.466 35.474 101.254 35.1836 101.868 34.6029C102.498 34.0055 102.83 33.0598 102.863 31.7655C102.896 31.0355 102.913 30.3552 102.913 29.7246C102.913 29.0775 102.896 28.3972 102.863 27.6838C102.847 26.8209 102.689 26.1158 102.39 25.5682C102.092 25.0206 101.693 24.6224 101.196 24.3735C100.714 24.1081 100.15 23.9753 99.5032 23.9753C98.8561 23.9753 98.2836 24.1081 97.7858 24.3735C97.2881 24.6224 96.8898 25.0206 96.5912 25.5682C96.3091 26.1158 96.1515 26.8209 96.1183 27.6838C96.1017 28.3972 96.0934 29.0775 96.0934 29.7246C96.0934 30.3552 96.1017 31.0355 96.1183 31.7655C96.1681 33.0598 96.4999 34.0055 97.1138 34.6029C97.7278 35.1836 98.5242 35.474 99.5032 35.474Z" fill="white"/>
    <path d="M112.229 38.4358C111.964 38.4358 111.748 38.3611 111.582 38.2118C111.433 38.0624 111.341 37.8799 111.308 37.6642L108.471 21.7104C108.454 21.6772 108.446 21.6441 108.446 21.6109C108.446 21.5777 108.446 21.5528 108.446 21.5362C108.446 21.4035 108.496 21.2873 108.595 21.1878C108.695 21.0716 108.819 21.0135 108.969 21.0135H111.582C112.013 21.0135 112.254 21.1878 112.304 21.5362L114.171 32.0642L116.187 25.5184C116.236 25.3857 116.319 25.2446 116.435 25.0953C116.552 24.946 116.742 24.8713 117.008 24.8713H118.576C118.841 24.8713 119.032 24.946 119.148 25.0953C119.264 25.2446 119.339 25.3857 119.372 25.5184L121.413 32.0393L123.255 21.5362C123.305 21.1878 123.554 21.0135 124.002 21.0135H126.615C126.764 21.0135 126.889 21.0716 126.988 21.1878C127.088 21.2873 127.138 21.4035 127.138 21.5362C127.138 21.5528 127.138 21.5777 127.138 21.6109C127.138 21.6441 127.129 21.6772 127.113 21.7104L124.275 37.6642C124.242 37.8799 124.143 38.0624 123.977 38.2118C123.827 38.3611 123.62 38.4358 123.355 38.4358H121.339C121.073 38.4358 120.866 38.3694 120.716 38.2367C120.584 38.0873 120.492 37.938 120.443 37.7887L117.779 30.0731L115.141 37.7887C115.091 37.938 114.992 38.0873 114.843 38.2367C114.71 38.3694 114.502 38.4358 114.22 38.4358H112.229Z" fill="white"/>
</svg>
