<svg width="45" height="35" viewBox="0 0 45 35" fill="none" xmlns="http://www.w3.org/2000/svg">
    <path d="M35.1707 18.1938H34.4027C31.843 18.1938 29.6928 17.3201 27.9522 15.5727C26.2116 13.8253 25.3413 11.6667 25.3413 9.09692C25.3413 6.52717 26.2116 4.36858 27.9522 2.62115C29.6928 0.873714 32.1502 0 35.3242 0C38.3959 0 40.802 1.33627 42.5427 4.00881C44.1809 6.78414 45 10.279 45 14.4934C45 21.5859 43.413 26.7768 40.2389 30.0661C37.0648 33.3554 33.0205 35 28.1058 35V27.5991C29.9488 27.5991 31.587 26.8796 33.0205 25.4405C34.4539 24.1043 35.1707 22.0999 35.1707 19.4273V18.1938ZM9.82935 18.1938H9.06144C6.50171 18.1938 4.35154 17.3201 2.61093 15.5727C0.870312 13.8253 0 11.6667 0 9.09692C0 6.52717 0.870312 4.36858 2.61093 2.62115C4.35154 0.873714 6.80888 0 9.98294 0C13.0546 0 15.4608 1.33627 17.2014 4.00881C18.8396 6.78414 19.6587 10.279 19.6587 14.4934C19.6587 21.5859 18.0717 26.7768 14.8976 30.0661C11.7236 33.3554 7.67918 35 2.76451 35V27.5991C4.60751 27.5991 6.24574 26.8796 7.67918 25.4405C9.11263 24.1043 9.82935 22.0999 9.82935 19.4273V18.1938Z" fill="#1611E7"/>
</svg>
