<svg width="45" height="35" viewBox="0 0 45 35" fill="none" xmlns="http://www.w3.org/2000/svg">
    <path d="M9.82935 16.8062H10.5973C13.157 16.8062 15.3072 17.6799 17.0478 19.4273C18.7884 21.1747 19.6587 23.3333 19.6587 25.9031C19.6587 28.4728 18.7884 30.6314 17.0478 32.3789C15.3072 34.1263 12.8498 35 9.67577 35C6.6041 35 4.19795 33.6637 2.45734 30.9912C0.819113 28.2159 0 24.721 0 20.5066C0 13.4141 1.58703 8.2232 4.76109 4.93392C7.93515 1.64464 11.9795 0 16.8942 0V7.40088C15.0512 7.40088 13.413 8.12041 11.9795 9.55947C10.5461 10.8957 9.82935 12.9001 9.82935 15.5727V16.8062ZM35.1706 16.8062H35.9386C38.4983 16.8062 40.6485 17.6799 42.3891 19.4273C44.1297 21.1747 45 23.3333 45 25.9031C45 28.4728 44.1297 30.6314 42.3891 32.3789C40.6485 34.1263 38.1911 35 35.0171 35C31.9454 35 29.5392 33.6637 27.7986 30.9912C26.1604 28.2159 25.3413 24.721 25.3413 20.5066C25.3413 13.4141 26.9283 8.2232 30.1024 4.93392C33.2764 1.64464 37.3208 0 42.2355 0V7.40088C40.3925 7.40088 38.7543 8.12041 37.3208 9.55947C35.8874 10.8957 35.1706 12.9001 35.1706 15.5727V16.8062Z" fill="#1611E7"/>
</svg>
